<svg width="1144" height="22" viewBox="0 0 1144 22" fill="none" xmlns="http://www.w3.org/2000/svg">
<path d="M59.5 11V9.5H56.5V8H55V3.5H56.5V2H59.5V0.5H61V2H64V3.5H65.5V8H64V9.5H61V11H59.5ZM58 8H59.5V3.5H58V8ZM61 8H62.5V3.5H61V8Z" fill="#5B588A"/>
<path d="M70 6.5H71.5V8H70V9.5H67V2H70V6.5ZM77.5 2V9.5H74.5V5H73V3.5H74.5V2H77.5ZM71.5 5H73V6.5H71.5V5Z" fill="#5B588A"/>
<path d="M80.5 9.5V8H79V6.5H82V8H86.5V6.5H83.5V5H86.5V3.5H82V5H79V3.5H80.5V2H88V3.5H89.5V5H88V6.5H89.5V8H88V9.5H80.5Z" fill="#5B588A"/>
<path d="M101.5 3.5V8H100V9.5H94V11H91V2H94V3.5H95.5V5H94V8H98.5V3.5H95.5V2H100V3.5H101.5Z" fill="#5B588A"/>
<path d="M104.5 9.5V8H103V6.5H104.5V5H110.5V3.5H104.5V2H112V3.5H113.5V9.5H104.5ZM106 8H110.5V6.5H106V8Z" fill="#5B588A"/>
<path d="M127 9.5V2H130V5H134.5V2H137.5V9.5H134.5V6.5H130V9.5H127Z" fill="#5B588A"/>
<path d="M140.5 9.5V8H139V3.5H140.5V2H148V3.5H149.5V6.5H142V8H148V9.5H140.5ZM142 5H146.5V3.5H142V5Z" fill="#5B588A"/>
<path d="M163 9.5V2H166V5H170.5V2H173.5V9.5H170.5V6.5H166V9.5H163Z" fill="#5B588A"/>
<path d="M176.5 11V9.5H182.5V8H176.5V6.5H175V2H178V6.5H182.5V2H185.5V9.5H184V11H176.5Z" fill="#5B588A"/>
<path d="M187 9.5V6.5H188.5V5H187V2H190V5H191.5V2H193V5H194.5V2H197.5V5H196V6.5H197.5V9.5H194.5V6.5H193V9.5H191.5V6.5H190V9.5H187Z" fill="#5B588A"/>
<path d="M199 9.5V2H202V5H206.5V2H209.5V9.5H206.5V6.5H202V9.5H199Z" fill="#5B588A"/>
<path d="M212.5 9.5V8H211V6.5H212.5V5H218.5V3.5H212.5V2H220V3.5H221.5V9.5H212.5ZM214 8H218.5V6.5H214V8Z" fill="#5B588A"/>
<path d="M4.48649 21.5V20H1.4955V18.5H0V14H1.4955V12.5H4.48649V11H5.98198V12.5H8.97297V14H10.4685V18.5H8.97297V20H5.98198V21.5H4.48649ZM2.99099 18.5H4.48649V14H2.99099V18.5ZM5.98198 18.5H7.47748V14H5.98198V18.5Z" fill="#5B588A"/>
<path d="M14.955 17H16.4505V18.5H14.955V20H11.964V12.5H14.955V17ZM22.4324 12.5V20H19.4414V15.5H17.9459V14H19.4414V12.5H22.4324ZM16.4505 15.5H17.9459V17H16.4505V15.5Z" fill="#5B588A"/>
<path d="M25.4234 20V18.5H23.9279V17H26.9189V18.5H31.4054V17H28.4144V15.5H31.4054V14H26.9189V15.5H23.9279V14H25.4234V12.5H32.9009V14H34.3964V15.5H32.9009V17H34.3964V18.5H32.9009V20H25.4234Z" fill="#5B588A"/>
<path d="M46.3604 14V18.5H44.8649V20H38.8829V21.5H35.8919V12.5H38.8829V14H40.3784V15.5H38.8829V18.5H43.3694V14H40.3784V12.5H44.8649V14H46.3604Z" fill="#5B588A"/>
<path d="M49.3514 20V18.5H47.8559V17H49.3514V15.5H55.3333V14H49.3514V12.5H56.8288V14H58.3243V20H49.3514ZM50.8468 18.5H55.3333V17H50.8468V18.5Z" fill="#5B588A"/>
<path d="M71.7838 20V12.5H74.7748V15.5H79.2613V12.5H82.2523V20H79.2613V17H74.7748V20H71.7838Z" fill="#5B588A"/>
<path d="M85.2432 20V18.5H83.7477V14H85.2432V12.5H92.7207V14H94.2162V17H86.7387V18.5H92.7207V20H85.2432ZM86.7387 15.5H91.2252V14H86.7387V15.5Z" fill="#5B588A"/>
<path d="M107.676 20V12.5H110.667V15.5H115.153V12.5H118.144V20H115.153V17H110.667V20H107.676Z" fill="#5B588A"/>
<path d="M121.135 21.5V20H127.117V18.5H121.135V17H119.64V12.5H122.631V17H127.117V12.5H130.108V20H128.613V21.5H121.135Z" fill="#5B588A"/>
<path d="M131.604 20V17H133.099V15.5H131.604V12.5H134.595V15.5H136.09V12.5H137.586V15.5H139.081V12.5H142.072V15.5H140.577V17H142.072V20H139.081V17H137.586V20H136.09V17H134.595V20H131.604Z" fill="#5B588A"/>
<path d="M143.568 20V12.5H146.559V15.5H151.045V12.5H154.036V20H151.045V17H146.559V20H143.568Z" fill="#5B588A"/>
<path d="M157.027 20V18.5H155.532V17H157.027V15.5H163.009V14H157.027V12.5H164.505V14H166V20H157.027ZM158.523 18.5H163.009V17H158.523V18.5Z" fill="#5B588A"/>
<path d="M244.486 10.5V9H241.495V7.5H240V3H241.495V1.5H244.486V0H245.982V1.5H248.973V3H250.468V7.5H248.973V9H245.982V10.5H244.486ZM242.991 7.5H244.486V3H242.991V7.5ZM245.982 7.5H247.477V3H245.982V7.5Z" fill="#5B588A"/>
<path d="M254.955 6H256.45V7.5H254.955V9H251.964V1.5H254.955V6ZM262.432 1.5V9H259.441V4.5H257.946V3H259.441V1.5H262.432ZM256.45 4.5H257.946V6H256.45V4.5Z" fill="#5B588A"/>
<path d="M265.423 9V7.5H263.928V6H266.919V7.5H271.405V6H268.414V4.5H271.405V3H266.919V4.5H263.928V3H265.423V1.5H272.901V3H274.396V4.5H272.901V6H274.396V7.5H272.901V9H265.423Z" fill="#5B588A"/>
<path d="M286.36 3V7.5H284.865V9H278.883V10.5H275.892V1.5H278.883V3H280.378V4.5H278.883V7.5H283.369V3H280.378V1.5H284.865V3H286.36Z" fill="#5B588A"/>
<path d="M289.351 9V7.5H287.856V6H289.351V4.5H295.333V3H289.351V1.5H296.829V3H298.324V9H289.351ZM290.847 7.5H295.333V6H290.847V7.5Z" fill="#5B588A"/>
<path d="M311.784 9V1.5H314.775V4.5H319.261V1.5H322.252V9H319.261V6H314.775V9H311.784Z" fill="#5B588A"/>
<path d="M325.243 9V7.5H323.748V3H325.243V1.5H332.721V3H334.216V6H326.739V7.5H332.721V9H325.243ZM326.739 4.5H331.225V3H326.739V4.5Z" fill="#5B588A"/>
<path d="M347.676 9V1.5H350.667V4.5H355.153V1.5H358.144V9H355.153V6H350.667V9H347.676Z" fill="#5B588A"/>
<path d="M361.135 10.5V9H367.117V7.5H361.135V6H359.64V1.5H362.631V6H367.117V1.5H370.108V9H368.613V10.5H361.135Z" fill="#5B588A"/>
<path d="M371.604 9V6H373.099V4.5H371.604V1.5H374.595V4.5H376.09V1.5H377.586V4.5H379.081V1.5H382.072V4.5H380.577V6H382.072V9H379.081V6H377.586V9H376.09V6H374.595V9H371.604Z" fill="#5B588A"/>
<path d="M383.568 9V1.5H386.559V4.5H391.045V1.5H394.036V9H391.045V6H386.559V9H383.568Z" fill="#5B588A"/>
<path d="M397.027 9V7.5H395.532V6H397.027V4.5H403.009V3H397.027V1.5H404.505V3H406V9H397.027ZM398.523 7.5H403.009V6H398.523V7.5Z" fill="#5B588A"/>
<path d="M188.5 21.5V20H185.5V18.5H184V14H185.5V12.5H188.5V11H190V12.5H193V14H194.5V18.5H193V20H190V21.5H188.5ZM187 18.5H188.5V14H187V18.5ZM190 18.5H191.5V14H190V18.5Z" fill="#5B588A"/>
<path d="M199 17H200.5V18.5H199V20H196V12.5H199V17ZM206.5 12.5V20H203.5V15.5H202V14H203.5V12.5H206.5ZM200.5 15.5H202V17H200.5V15.5Z" fill="#5B588A"/>
<path d="M209.5 20V18.5H208V17H211V18.5H215.5V17H212.5V15.5H215.5V14H211V15.5H208V14H209.5V12.5H217V14H218.5V15.5H217V17H218.5V18.5H217V20H209.5Z" fill="#5B588A"/>
<path d="M230.5 14V18.5H229V20H223V21.5H220V12.5H223V14H224.5V15.5H223V18.5H227.5V14H224.5V12.5H229V14H230.5Z" fill="#5B588A"/>
<path d="M233.5 20V18.5H232V17H233.5V15.5H239.5V14H233.5V12.5H241V14H242.5V20H233.5ZM235 18.5H239.5V17H235V18.5Z" fill="#5B588A"/>
<path d="M256 20V12.5H259V15.5H263.5V12.5H266.5V20H263.5V17H259V20H256Z" fill="#5B588A"/>
<path d="M269.5 20V18.5H268V14H269.5V12.5H277V14H278.5V17H271V18.5H277V20H269.5ZM271 15.5H275.5V14H271V15.5Z" fill="#5B588A"/>
<path d="M292 20V12.5H295V15.5H299.5V12.5H302.5V20H299.5V17H295V20H292Z" fill="#5B588A"/>
<path d="M305.5 21.5V20H311.5V18.5H305.5V17H304V12.5H307V17H311.5V12.5H314.5V20H313V21.5H305.5Z" fill="#5B588A"/>
<path d="M316 20V17H317.5V15.5H316V12.5H319V15.5H320.5V12.5H322V15.5H323.5V12.5H326.5V15.5H325V17H326.5V20H323.5V17H322V20H320.5V17H319V20H316Z" fill="#5B588A"/>
<path d="M328 20V12.5H331V15.5H335.5V12.5H338.5V20H335.5V17H331V20H328Z" fill="#5B588A"/>
<path d="M341.5 20V18.5H340V17H341.5V15.5H347.5V14H341.5V12.5H349V14H350.5V20H341.5ZM343 18.5H347.5V17H343V18.5Z" fill="#5B588A"/>
<path d="M428.5 11V9.5H425.5V8H424V3.5H425.5V2H428.5V0.5H430V2H433V3.5H434.5V8H433V9.5H430V11H428.5ZM427 8H428.5V3.5H427V8ZM430 8H431.5V3.5H430V8Z" fill="#5B588A"/>
<path d="M439 6.5H440.5V8H439V9.5H436V2H439V6.5ZM446.5 2V9.5H443.5V5H442V3.5H443.5V2H446.5ZM440.5 5H442V6.5H440.5V5Z" fill="#5B588A"/>
<path d="M449.5 9.5V8H448V6.5H451V8H455.5V6.5H452.5V5H455.5V3.5H451V5H448V3.5H449.5V2H457V3.5H458.5V5H457V6.5H458.5V8H457V9.5H449.5Z" fill="#5B588A"/>
<path d="M470.5 3.5V8H469V9.5H463V11H460V2H463V3.5H464.5V5H463V8H467.5V3.5H464.5V2H469V3.5H470.5Z" fill="#5B588A"/>
<path d="M473.5 9.5V8H472V6.5H473.5V5H479.5V3.5H473.5V2H481V3.5H482.5V9.5H473.5ZM475 8H479.5V6.5H475V8Z" fill="#5B588A"/>
<path d="M496 9.5V2H499V5H503.5V2H506.5V9.5H503.5V6.5H499V9.5H496Z" fill="#5B588A"/>
<path d="M509.5 9.5V8H508V3.5H509.5V2H517V3.5H518.5V6.5H511V8H517V9.5H509.5ZM511 5H515.5V3.5H511V5Z" fill="#5B588A"/>
<path d="M532 9.5V2H535V5H539.5V2H542.5V9.5H539.5V6.5H535V9.5H532Z" fill="#5B588A"/>
<path d="M545.5 11V9.5H551.5V8H545.5V6.5H544V2H547V6.5H551.5V2H554.5V9.5H553V11H545.5Z" fill="#5B588A"/>
<path d="M556 9.5V6.5H557.5V5H556V2H559V5H560.5V2H562V5H563.5V2H566.5V5H565V6.5H566.5V9.5H563.5V6.5H562V9.5H560.5V6.5H559V9.5H556Z" fill="#5B588A"/>
<path d="M568 9.5V2H571V5H575.5V2H578.5V9.5H575.5V6.5H571V9.5H568Z" fill="#5B588A"/>
<path d="M581.5 9.5V8H580V6.5H581.5V5H587.5V3.5H581.5V2H589V3.5H590.5V9.5H581.5ZM583 8H587.5V6.5H583V8Z" fill="#5B588A"/>
<path d="M373.486 21.5V20H370.495V18.5H369V14H370.495V12.5H373.486V11H374.982V12.5H377.973V14H379.468V18.5H377.973V20H374.982V21.5H373.486ZM371.991 18.5H373.486V14H371.991V18.5ZM374.982 18.5H376.477V14H374.982V18.5Z" fill="#5B588A"/>
<path d="M383.955 17H385.45V18.5H383.955V20H380.964V12.5H383.955V17ZM391.432 12.5V20H388.441V15.5H386.946V14H388.441V12.5H391.432ZM385.45 15.5H386.946V17H385.45V15.5Z" fill="#5B588A"/>
<path d="M394.423 20V18.5H392.928V17H395.919V18.5H400.405V17H397.414V15.5H400.405V14H395.919V15.5H392.928V14H394.423V12.5H401.901V14H403.396V15.5H401.901V17H403.396V18.5H401.901V20H394.423Z" fill="#5B588A"/>
<path d="M415.36 14V18.5H413.865V20H407.883V21.5H404.892V12.5H407.883V14H409.378V15.5H407.883V18.5H412.369V14H409.378V12.5H413.865V14H415.36Z" fill="#5B588A"/>
<path d="M418.351 20V18.5H416.856V17H418.351V15.5H424.333V14H418.351V12.5H425.829V14H427.324V20H418.351ZM419.847 18.5H424.333V17H419.847V18.5Z" fill="#5B588A"/>
<path d="M440.784 20V12.5H443.775V15.5H448.261V12.5H451.252V20H448.261V17H443.775V20H440.784Z" fill="#5B588A"/>
<path d="M454.243 20V18.5H452.748V14H454.243V12.5H461.721V14H463.216V17H455.739V18.5H461.721V20H454.243ZM455.739 15.5H460.225V14H455.739V15.5Z" fill="#5B588A"/>
<path d="M476.676 20V12.5H479.667V15.5H484.153V12.5H487.144V20H484.153V17H479.667V20H476.676Z" fill="#5B588A"/>
<path d="M490.135 21.5V20H496.117V18.5H490.135V17H488.64V12.5H491.631V17H496.117V12.5H499.108V20H497.613V21.5H490.135Z" fill="#5B588A"/>
<path d="M500.604 20V17H502.099V15.5H500.604V12.5H503.595V15.5H505.09V12.5H506.586V15.5H508.081V12.5H511.072V15.5H509.577V17H511.072V20H508.081V17H506.586V20H505.09V17H503.595V20H500.604Z" fill="#5B588A"/>
<path d="M512.568 20V12.5H515.559V15.5H520.045V12.5H523.036V20H520.045V17H515.559V20H512.568Z" fill="#5B588A"/>
<path d="M526.027 20V18.5H524.532V17H526.027V15.5H532.009V14H526.027V12.5H533.505V14H535V20H526.027ZM527.523 18.5H532.009V17H527.523V18.5Z" fill="#5B588A"/>
<path d="M613.487 10.5V9H610.495V7.5H609V3H610.495V1.5H613.487V0H614.982V1.5H617.973V3H619.468V7.5H617.973V9H614.982V10.5H613.487ZM611.991 7.5H613.487V3H611.991V7.5ZM614.982 7.5H616.477V3H614.982V7.5Z" fill="#5B588A"/>
<path d="M623.955 6H625.45V7.5H623.955V9H620.964V1.5H623.955V6ZM631.432 1.5V9H628.441V4.5H626.946V3H628.441V1.5H631.432ZM625.45 4.5H626.946V6H625.45V4.5Z" fill="#5B588A"/>
<path d="M634.423 9V7.5H632.928V6H635.919V7.5H640.405V6H637.414V4.5H640.405V3H635.919V4.5H632.928V3H634.423V1.5H641.901V3H643.396V4.5H641.901V6H643.396V7.5H641.901V9H634.423Z" fill="#5B588A"/>
<path d="M655.36 3V7.5H653.865V9H647.883V10.5H644.892V1.5H647.883V3H649.378V4.5H647.883V7.5H652.369V3H649.378V1.5H653.865V3H655.36Z" fill="#5B588A"/>
<path d="M658.351 9V7.5H656.856V6H658.351V4.5H664.333V3H658.351V1.5H665.829V3H667.324V9H658.351ZM659.847 7.5H664.333V6H659.847V7.5Z" fill="#5B588A"/>
<path d="M680.784 9V1.5H683.775V4.5H688.261V1.5H691.252V9H688.261V6H683.775V9H680.784Z" fill="#5B588A"/>
<path d="M694.243 9V7.5H692.748V3H694.243V1.5H701.721V3H703.216V6H695.739V7.5H701.721V9H694.243ZM695.739 4.5H700.225V3H695.739V4.5Z" fill="#5B588A"/>
<path d="M716.676 9V1.5H719.667V4.5H724.153V1.5H727.144V9H724.153V6H719.667V9H716.676Z" fill="#5B588A"/>
<path d="M730.135 10.5V9H736.117V7.5H730.135V6H728.64V1.5H731.631V6H736.117V1.5H739.108V9H737.613V10.5H730.135Z" fill="#5B588A"/>
<path d="M740.604 9V6H742.099V4.5H740.604V1.5H743.595V4.5H745.09V1.5H746.586V4.5H748.081V1.5H751.072V4.5H749.577V6H751.072V9H748.081V6H746.586V9H745.09V6H743.595V9H740.604Z" fill="#5B588A"/>
<path d="M752.568 9V1.5H755.559V4.5H760.045V1.5H763.036V9H760.045V6H755.559V9H752.568Z" fill="#5B588A"/>
<path d="M766.027 9V7.5H764.532V6H766.027V4.5H772.009V3H766.027V1.5H773.505V3H775V9H766.027ZM767.523 7.5H772.009V6H767.523V7.5Z" fill="#5B588A"/>
<path d="M557.5 21.5V20H554.5V18.5H553V14H554.5V12.5H557.5V11H559V12.5H562V14H563.5V18.5H562V20H559V21.5H557.5ZM556 18.5H557.5V14H556V18.5ZM559 18.5H560.5V14H559V18.5Z" fill="#5B588A"/>
<path d="M568 17H569.5V18.5H568V20H565V12.5H568V17ZM575.5 12.5V20H572.5V15.5H571V14H572.5V12.5H575.5ZM569.5 15.5H571V17H569.5V15.5Z" fill="#5B588A"/>
<path d="M578.5 20V18.5H577V17H580V18.5H584.5V17H581.5V15.5H584.5V14H580V15.5H577V14H578.5V12.5H586V14H587.5V15.5H586V17H587.5V18.5H586V20H578.5Z" fill="#5B588A"/>
<path d="M599.5 14V18.5H598V20H592V21.5H589V12.5H592V14H593.5V15.5H592V18.5H596.5V14H593.5V12.5H598V14H599.5Z" fill="#5B588A"/>
<path d="M602.5 20V18.5H601V17H602.5V15.5H608.5V14H602.5V12.5H610V14H611.5V20H602.5ZM604 18.5H608.5V17H604V18.5Z" fill="#5B588A"/>
<path d="M625 20V12.5H628V15.5H632.5V12.5H635.5V20H632.5V17H628V20H625Z" fill="#5B588A"/>
<path d="M638.5 20V18.5H637V14H638.5V12.5H646V14H647.5V17H640V18.5H646V20H638.5ZM640 15.5H644.5V14H640V15.5Z" fill="#5B588A"/>
<path d="M661 20V12.5H664V15.5H668.5V12.5H671.5V20H668.5V17H664V20H661Z" fill="#5B588A"/>
<path d="M674.5 21.5V20H680.5V18.5H674.5V17H673V12.5H676V17H680.5V12.5H683.5V20H682V21.5H674.5Z" fill="#5B588A"/>
<path d="M685 20V17H686.5V15.5H685V12.5H688V15.5H689.5V12.5H691V15.5H692.5V12.5H695.5V15.5H694V17H695.5V20H692.5V17H691V20H689.5V17H688V20H685Z" fill="#5B588A"/>
<path d="M697 20V12.5H700V15.5H704.5V12.5H707.5V20H704.5V17H700V20H697Z" fill="#5B588A"/>
<path d="M710.5 20V18.5H709V17H710.5V15.5H716.5V14H710.5V12.5H718V14H719.5V20H710.5ZM712 18.5H716.5V17H712V18.5Z" fill="#5B588A"/>
<path d="M797.5 11V9.5H794.5V8H793V3.5H794.5V2H797.5V0.5H799V2H802V3.5H803.5V8H802V9.5H799V11H797.5ZM796 8H797.5V3.5H796V8ZM799 8H800.5V3.5H799V8Z" fill="#5B588A"/>
<path d="M808 6.5H809.5V8H808V9.5H805V2H808V6.5ZM815.5 2V9.5H812.5V5H811V3.5H812.5V2H815.5ZM809.5 5H811V6.5H809.5V5Z" fill="#5B588A"/>
<path d="M818.5 9.5V8H817V6.5H820V8H824.5V6.5H821.5V5H824.5V3.5H820V5H817V3.5H818.5V2H826V3.5H827.5V5H826V6.5H827.5V8H826V9.5H818.5Z" fill="#5B588A"/>
<path d="M839.5 3.5V8H838V9.5H832V11H829V2H832V3.5H833.5V5H832V8H836.5V3.5H833.5V2H838V3.5H839.5Z" fill="#5B588A"/>
<path d="M842.5 9.5V8H841V6.5H842.5V5H848.5V3.5H842.5V2H850V3.5H851.5V9.5H842.5ZM844 8H848.5V6.5H844V8Z" fill="#5B588A"/>
<path d="M865 9.5V2H868V5H872.5V2H875.5V9.5H872.5V6.5H868V9.5H865Z" fill="#5B588A"/>
<path d="M878.5 9.5V8H877V3.5H878.5V2H886V3.5H887.5V6.5H880V8H886V9.5H878.5ZM880 5H884.5V3.5H880V5Z" fill="#5B588A"/>
<path d="M901 9.5V2H904V5H908.5V2H911.5V9.5H908.5V6.5H904V9.5H901Z" fill="#5B588A"/>
<path d="M914.5 11V9.5H920.5V8H914.5V6.5H913V2H916V6.5H920.5V2H923.5V9.5H922V11H914.5Z" fill="#5B588A"/>
<path d="M925 9.5V6.5H926.5V5H925V2H928V5H929.5V2H931V5H932.5V2H935.5V5H934V6.5H935.5V9.5H932.5V6.5H931V9.5H929.5V6.5H928V9.5H925Z" fill="#5B588A"/>
<path d="M937 9.5V2H940V5H944.5V2H947.5V9.5H944.5V6.5H940V9.5H937Z" fill="#5B588A"/>
<path d="M950.5 9.5V8H949V6.5H950.5V5H956.5V3.5H950.5V2H958V3.5H959.5V9.5H950.5ZM952 8H956.5V6.5H952V8Z" fill="#5B588A"/>
<path d="M742.487 21.5V20H739.495V18.5H738V14H739.495V12.5H742.487V11H743.982V12.5H746.973V14H748.468V18.5H746.973V20H743.982V21.5H742.487ZM740.991 18.5H742.487V14H740.991V18.5ZM743.982 18.5H745.477V14H743.982V18.5Z" fill="#5B588A"/>
<path d="M752.955 17H754.45V18.5H752.955V20H749.964V12.5H752.955V17ZM760.432 12.5V20H757.441V15.5H755.946V14H757.441V12.5H760.432ZM754.45 15.5H755.946V17H754.45V15.5Z" fill="#5B588A"/>
<path d="M763.423 20V18.5H761.928V17H764.919V18.5H769.405V17H766.414V15.5H769.405V14H764.919V15.5H761.928V14H763.423V12.5H770.901V14H772.396V15.5H770.901V17H772.396V18.5H770.901V20H763.423Z" fill="#5B588A"/>
<path d="M784.36 14V18.5H782.865V20H776.883V21.5H773.892V12.5H776.883V14H778.378V15.5H776.883V18.5H781.369V14H778.378V12.5H782.865V14H784.36Z" fill="#5B588A"/>
<path d="M787.351 20V18.5H785.856V17H787.351V15.5H793.333V14H787.351V12.5H794.829V14H796.324V20H787.351ZM788.847 18.5H793.333V17H788.847V18.5Z" fill="#5B588A"/>
<path d="M809.784 20V12.5H812.775V15.5H817.261V12.5H820.252V20H817.261V17H812.775V20H809.784Z" fill="#5B588A"/>
<path d="M823.243 20V18.5H821.748V14H823.243V12.5H830.721V14H832.216V17H824.739V18.5H830.721V20H823.243ZM824.739 15.5H829.225V14H824.739V15.5Z" fill="#5B588A"/>
<path d="M845.676 20V12.5H848.667V15.5H853.153V12.5H856.144V20H853.153V17H848.667V20H845.676Z" fill="#5B588A"/>
<path d="M859.135 21.5V20H865.117V18.5H859.135V17H857.64V12.5H860.631V17H865.117V12.5H868.108V20H866.613V21.5H859.135Z" fill="#5B588A"/>
<path d="M869.604 20V17H871.099V15.5H869.604V12.5H872.595V15.5H874.09V12.5H875.586V15.5H877.081V12.5H880.072V15.5H878.577V17H880.072V20H877.081V17H875.586V20H874.09V17H872.595V20H869.604Z" fill="#5B588A"/>
<path d="M881.568 20V12.5H884.559V15.5H889.045V12.5H892.036V20H889.045V17H884.559V20H881.568Z" fill="#5B588A"/>
<path d="M895.027 20V18.5H893.532V17H895.027V15.5H901.009V14H895.027V12.5H902.505V14H904V20H895.027ZM896.523 18.5H901.009V17H896.523V18.5Z" fill="#5B588A"/>
<path d="M982.487 10.5V9H979.495V7.5H978V3H979.495V1.5H982.487V0H983.982V1.5H986.973V3H988.468V7.5H986.973V9H983.982V10.5H982.487ZM980.991 7.5H982.487V3H980.991V7.5ZM983.982 7.5H985.477V3H983.982V7.5Z" fill="#5B588A"/>
<path d="M992.955 6H994.45V7.5H992.955V9H989.964V1.5H992.955V6ZM1000.43 1.5V9H997.441V4.5H995.946V3H997.441V1.5H1000.43ZM994.45 4.5H995.946V6H994.45V4.5Z" fill="#5B588A"/>
<path d="M1003.42 9V7.5H1001.93V6H1004.92V7.5H1009.41V6H1006.41V4.5H1009.41V3H1004.92V4.5H1001.93V3H1003.42V1.5H1010.9V3H1012.4V4.5H1010.9V6H1012.4V7.5H1010.9V9H1003.42Z" fill="#5B588A"/>
<path d="M1024.36 3V7.5H1022.86V9H1016.88V10.5H1013.89V1.5H1016.88V3H1018.38V4.5H1016.88V7.5H1021.37V3H1018.38V1.5H1022.86V3H1024.36Z" fill="#5B588A"/>
<path d="M1027.35 9V7.5H1025.86V6H1027.35V4.5H1033.33V3H1027.35V1.5H1034.83V3H1036.32V9H1027.35ZM1028.85 7.5H1033.33V6H1028.85V7.5Z" fill="#5B588A"/>
<path d="M1049.78 9V1.5H1052.77V4.5H1057.26V1.5H1060.25V9H1057.26V6H1052.77V9H1049.78Z" fill="#5B588A"/>
<path d="M1063.24 9V7.5H1061.75V3H1063.24V1.5H1070.72V3H1072.22V6H1064.74V7.5H1070.72V9H1063.24ZM1064.74 4.5H1069.23V3H1064.74V4.5Z" fill="#5B588A"/>
<path d="M1085.68 9V1.5H1088.67V4.5H1093.15V1.5H1096.14V9H1093.15V6H1088.67V9H1085.68Z" fill="#5B588A"/>
<path d="M1099.14 10.5V9H1105.12V7.5H1099.14V6H1097.64V1.5H1100.63V6H1105.12V1.5H1108.11V9H1106.61V10.5H1099.14Z" fill="#5B588A"/>
<path d="M1109.6 9V6H1111.1V4.5H1109.6V1.5H1112.59V4.5H1114.09V1.5H1115.59V4.5H1117.08V1.5H1120.07V4.5H1118.58V6H1120.07V9H1117.08V6H1115.59V9H1114.09V6H1112.59V9H1109.6Z" fill="#5B588A"/>
<path d="M1121.57 9V1.5H1124.56V4.5H1129.05V1.5H1132.04V9H1129.05V6H1124.56V9H1121.57Z" fill="#5B588A"/>
<path d="M1135.03 9V7.5H1133.53V6H1135.03V4.5H1141.01V3H1135.03V1.5H1142.5V3H1144V9H1135.03ZM1136.52 7.5H1141.01V6H1136.52V7.5Z" fill="#5B588A"/>
<path d="M926.5 21.5V20H923.5V18.5H922V14H923.5V12.5H926.5V11H928V12.5H931V14H932.5V18.5H931V20H928V21.5H926.5ZM925 18.5H926.5V14H925V18.5ZM928 18.5H929.5V14H928V18.5Z" fill="#5B588A"/>
<path d="M937 17H938.5V18.5H937V20H934V12.5H937V17ZM944.5 12.5V20H941.5V15.5H940V14H941.5V12.5H944.5ZM938.5 15.5H940V17H938.5V15.5Z" fill="#5B588A"/>
<path d="M947.5 20V18.5H946V17H949V18.5H953.5V17H950.5V15.5H953.5V14H949V15.5H946V14H947.5V12.5H955V14H956.5V15.5H955V17H956.5V18.5H955V20H947.5Z" fill="#5B588A"/>
<path d="M968.5 14V18.5H967V20H961V21.5H958V12.5H961V14H962.5V15.5H961V18.5H965.5V14H962.5V12.5H967V14H968.5Z" fill="#5B588A"/>
<path d="M971.5 20V18.5H970V17H971.5V15.5H977.5V14H971.5V12.5H979V14H980.5V20H971.5ZM973 18.5H977.5V17H973V18.5Z" fill="#5B588A"/>
<path d="M994 20V12.5H997V15.5H1001.5V12.5H1004.5V20H1001.5V17H997V20H994Z" fill="#5B588A"/>
<path d="M1007.5 20V18.5H1006V14H1007.5V12.5H1015V14H1016.5V17H1009V18.5H1015V20H1007.5ZM1009 15.5H1013.5V14H1009V15.5Z" fill="#5B588A"/>
<path d="M1030 20V12.5H1033V15.5H1037.5V12.5H1040.5V20H1037.5V17H1033V20H1030Z" fill="#5B588A"/>
<path d="M1043.5 21.5V20H1049.5V18.5H1043.5V17H1042V12.5H1045V17H1049.5V12.5H1052.5V20H1051V21.5H1043.5Z" fill="#5B588A"/>
<path d="M1054 20V17H1055.5V15.5H1054V12.5H1057V15.5H1058.5V12.5H1060V15.5H1061.5V12.5H1064.5V15.5H1063V17H1064.5V20H1061.5V17H1060V20H1058.5V17H1057V20H1054Z" fill="#5B588A"/>
<path d="M1066 20V12.5H1069V15.5H1073.5V12.5H1076.5V20H1073.5V17H1069V20H1066Z" fill="#5B588A"/>
<path d="M1079.5 20V18.5H1078V17H1079.5V15.5H1085.5V14H1079.5V12.5H1087V14H1088.5V20H1079.5ZM1081 18.5H1085.5V17H1081V18.5Z" fill="#5B588A"/>
</svg>
